<svg id="Capa_1" data-name="Capa 1" xmlns="http://www.w3.org/2000/svg" xmlns:xlink="http://www.w3.org/1999/xlink" viewBox="0 0 2484 1082"><defs><style>.cls-1{fill:none;}.cls-2{fill:#f7931e;}.cls-2,.cls-3,.cls-4,.cls-5,.cls-6,.cls-7{stroke:#e97d19;stroke-width:8px;}.cls-2,.cls-3,.cls-4,.cls-5,.cls-6,.cls-7,.cls-8,.cls-9{stroke-miterlimit:10;}.cls-3{fill:#f79120;}.cls-4{fill:#f78f21;}.cls-5{fill:#f68e23;}.cls-6{fill:#f68c24;}.cls-7{fill:#f68a26;}.cls-8{fill:#fff;}.cls-8,.cls-9{stroke:#000;stroke-width:2px;}.cls-9{fill:url(#Motivo_nuevo_2);}</style><pattern id="Motivo_nuevo_2" data-name="Motivo nuevo 2" x="563" y="1" width="200" height="200" patternUnits="userSpaceOnUse" viewBox="0 0 200 200"><rect class="cls-1" width="200" height="200"/><circle class="cls-2" cx="300" cy="-100" r="100"/><circle class="cls-2" cx="100" cy="-100" r="100"/><circle class="cls-2" cx="-100" cy="-100" r="100"/><circle class="cls-2" cx="200" cy="-50" r="100"/><circle class="cls-3" cx="199.95" cy="-50" r="82"/><circle class="cls-4" cx="199.9" cy="-50" r="64"/><circle class="cls-2" cy="-50" r="100"/><circle class="cls-3" cx="-0.05" cy="-50" r="82"/><circle class="cls-4" cx="-0.1" cy="-50" r="64"/><circle class="cls-2" cx="300" r="100"/><circle class="cls-2" cx="100" r="100"/><circle class="cls-3" cx="99.95" r="82"/><circle class="cls-4" cx="99.9" r="64"/><circle class="cls-5" cx="99.85" r="46"/><circle class="cls-6" cx="99.8" r="28"/><circle class="cls-7" cx="99.75" r="10"/><circle class="cls-2" cx="-100" r="100"/><circle class="cls-2" cx="200" cy="50" r="100"/><circle class="cls-3" cx="199.95" cy="50" r="82"/><circle class="cls-4" cx="199.9" cy="50" r="64"/><circle class="cls-5" cx="199.85" cy="50" r="46"/><circle class="cls-6" cx="199.8" cy="50" r="28"/><circle class="cls-7" cx="199.75" cy="50" r="10"/><circle class="cls-2" cy="50" r="100"/><circle class="cls-3" cx="-0.05" cy="50" r="82"/><circle class="cls-4" cx="-0.1" cy="50" r="64"/><circle class="cls-5" cx="-0.15" cy="50" r="46"/><circle class="cls-6" cx="-0.2" cy="50" r="28"/><circle class="cls-7" cx="-0.25" cy="50" r="10"/><circle class="cls-2" cx="300" cy="100" r="100"/><circle class="cls-2" cx="100" cy="100" r="100"/><circle class="cls-3" cx="99.95" cy="100" r="82"/><circle class="cls-4" cx="99.9" cy="100" r="64"/><circle class="cls-5" cx="99.85" cy="100" r="46"/><circle class="cls-6" cx="99.8" cy="100" r="28"/><circle class="cls-7" cx="99.75" cy="100" r="10"/><circle class="cls-2" cx="-100" cy="100" r="100"/><circle class="cls-2" cx="200" cy="150" r="100"/><circle class="cls-3" cx="199.95" cy="150" r="82"/><circle class="cls-4" cx="199.9" cy="150" r="64"/><circle class="cls-5" cx="199.85" cy="150" r="46"/><circle class="cls-6" cx="199.8" cy="150" r="28"/><circle class="cls-7" cx="199.75" cy="150" r="10"/><circle class="cls-2" cy="150" r="100"/><circle class="cls-3" cx="-0.05" cy="150" r="82"/><circle class="cls-4" cx="-0.1" cy="150" r="64"/><circle class="cls-5" cx="-0.15" cy="150" r="46"/><circle class="cls-6" cx="-0.2" cy="150" r="28"/><circle class="cls-7" cx="-0.25" cy="150" r="10"/><circle class="cls-2" cx="300" cy="200" r="100"/><circle class="cls-2" cx="100" cy="200" r="100"/><circle class="cls-3" cx="99.95" cy="200" r="82"/><circle class="cls-4" cx="99.9" cy="200" r="64"/><circle class="cls-5" cx="99.85" cy="200" r="46"/><circle class="cls-6" cx="99.8" cy="200" r="28"/><circle class="cls-7" cx="99.75" cy="200" r="10"/><circle class="cls-2" cx="-100" cy="200" r="100"/><circle class="cls-2" cx="200" cy="250" r="100"/><circle class="cls-3" cx="199.95" cy="250" r="82"/><circle class="cls-4" cx="199.9" cy="250" r="64"/><circle class="cls-2" cy="250" r="100"/><circle class="cls-3" cx="-0.05" cy="250" r="82"/><circle class="cls-4" cx="-0.1" cy="250" r="64"/><circle class="cls-2" cx="300" cy="300" r="100"/><circle class="cls-2" cx="100" cy="300" r="100"/><circle class="cls-2" cx="-100" cy="300" r="100"/></pattern></defs><circle class="cls-8" cx="148.5" cy="540.5" r="100"/><circle class="cls-8" cx="148.6" cy="540.6" r="82"/><circle class="cls-8" cx="148.7" cy="540.7" r="64"/><circle class="cls-8" cx="148.8" cy="540.8" r="46"/><circle class="cls-8" cx="148.9" cy="540.9" r="28"/><circle class="cls-8" cx="149" cy="541" r="10"/><circle class="cls-2" cx="104" cy="217" r="100"/><circle class="cls-3" cx="103.95" cy="217" r="82"/><circle class="cls-4" cx="103.9" cy="217" r="64"/><circle class="cls-5" cx="103.85" cy="217" r="46"/><circle class="cls-6" cx="103.8" cy="217" r="28"/><circle class="cls-7" cx="103.75" cy="217" r="10"/><rect class="cls-9" x="563" y="1" width="1920" height="1080"/></svg>